<?xml version="1.0" encoding="UTF-8" standalone="no"?>
<svg width="438.679mm" height="225.425mm"
 xmlns="http://www.w3.org/2000/svg" xmlns:xlink="http://www.w3.org/1999/xlink"  version="1.2" baseProfile="tiny">
<title>Effect of CO2 on Environment</title>
<desc>Rendered by Tableau</desc>
<defs>
</defs>
<g fill="none" stroke="black" stroke-width="1" fill-rule="evenodd" stroke-linecap="square" stroke-linejoin="bevel" >

<g >
<g fill="#ffffff" fill-opacity="1" stroke="none" transform="matrix(1,0,0,1,0,0)"
font-family="Benton Sans Book" font-size="13.3333" font-weight="400" font-style="normal" 
>
<rect x="0" y="0" width="1658" height="852"/>
</g>
</g>

<g >
<g fill="none" stroke="#333333" stroke-opacity="1" stroke-width="1" stroke-linecap="square" stroke-linejoin="bevel" transform="matrix(1,0,0,1,0,0)"
font-family="Arial" font-size="30" font-weight="400" font-style="normal" 
>
<text fill="#333333" fill-opacity="1" stroke="none" xml:space="preserve" x="11.3438" y="39" font-family="Arial" font-size="30" font-weight="400" font-style="normal" 
 >Effect of CO2 on Environment</text>
</g>
</g>

<g >
<g fill="#ffffff" fill-opacity="1" stroke="none" transform="matrix(1,0,0,1,0,0)"
font-family="Arial" font-size="30" font-weight="400" font-style="normal" 
>
<rect x="8" y="50" width="1641" height="101"/>
</g>
</g>

<clipPath id ="clip1" >
<rect x="8" y="35" height="101" width="1641" transform="matrix(1,0,0,1,0,15)" />
</clipPath>
<g  clip-path="url(#clip1)" 
>
<g fill="none" stroke="#333333" stroke-opacity="1" stroke-width="1" stroke-linecap="square" stroke-linejoin="bevel" transform="matrix(1,0,0,1,0,15)"
font-family="Arial" font-size="30" font-weight="400" font-style="normal" 
>
</g>
</g>

<g  clip-path="url(#clip1)" 
>
<g fill="#dbdbdb" fill-opacity="1" stroke="none" transform="matrix(1,0,0,1,0,15)"
font-family="Arial" font-size="30" font-weight="400" font-style="normal" 
>
<rect x="450" y="50" width="150" height="70"/>
</g>
</g>

<clipPath id ="clip2" >
<rect x="460" y="59" height="52" width="130" transform="matrix(1,0,0,1,0,15)" />
</clipPath>
<g  clip-path="url(#clip2)" 
>
<g fill="none" stroke="#333333" stroke-opacity="1" stroke-width="1" stroke-linecap="square" stroke-linejoin="bevel" transform="matrix(1,0,0,1,0,15)"
font-family="Arial" font-size="30" font-weight="400" font-style="normal" 
>
</g>
</g>

<g  clip-path="url(#clip2)" 
>
<g fill="none" stroke="#000000" stroke-opacity="1" stroke-width="1" stroke-linecap="square" stroke-linejoin="bevel" transform="matrix(1,0,0,1,0,15)"
font-family="Arial" font-size="15" font-weight="400" font-style="normal" 
>
<text fill="#000000" fill-opacity="1" stroke="none" xml:space="preserve" x="460" y="73" font-family="Arial" font-size="15" font-weight="400" font-style="normal" 
 >     Introduction</text>
</g>
</g>

<clipPath id ="clip3" >
<rect x="8" y="35" height="101" width="1641" transform="matrix(1,0,0,1,0,15)" />
</clipPath>
<g  clip-path="url(#clip3)" 
>
<g fill="none" stroke="#000000" stroke-opacity="1" stroke-width="1" stroke-linecap="square" stroke-linejoin="bevel" transform="matrix(1,0,0,1,0,15)"
font-family="Arial" font-size="15" font-weight="400" font-style="normal" 
>
</g>
</g>

<g  clip-path="url(#clip3)" 
>
<g fill="#ededed" fill-opacity="1" stroke="none" transform="matrix(1,0,0,1,0,15)"
font-family="Arial" font-size="15" font-weight="400" font-style="normal" 
>
<rect x="602" y="50" width="150" height="70"/>
</g>
</g>

<clipPath id ="clip4" >
<rect x="612" y="59" height="52" width="130" transform="matrix(1,0,0,1,0,15)" />
</clipPath>
<g  clip-path="url(#clip4)" 
>
<g fill="none" stroke="#000000" stroke-opacity="1" stroke-width="1" stroke-linecap="square" stroke-linejoin="bevel" transform="matrix(1,0,0,1,0,15)"
font-family="Arial" font-size="15" font-weight="400" font-style="normal" 
>
</g>
</g>

<g  clip-path="url(#clip4)" 
>
<g fill="none" stroke="#767676" stroke-opacity="1" stroke-width="1" stroke-linecap="square" stroke-linejoin="bevel" transform="matrix(1,0,0,1,0,15)"
font-family="Arial" font-size="15" font-weight="400" font-style="normal" 
>
<text fill="#767676" fill-opacity="1" stroke="none" xml:space="preserve" x="612" y="73" font-family="Arial" font-size="15" font-weight="400" font-style="normal" 
 >Total amount of</text>
</g>
</g>

<g  clip-path="url(#clip4)" 
>
<g fill="none" stroke="#767676" stroke-opacity="1" stroke-width="1" stroke-linecap="square" stroke-linejoin="bevel" transform="matrix(1,0,0,1,0,15)"
font-family="Arial" font-size="15" font-weight="400" font-style="normal" 
>
<text fill="#767676" fill-opacity="1" stroke="none" xml:space="preserve" x="612" y="90" font-family="Arial" font-size="15" font-weight="400" font-style="normal" 
 >Co2 emission</text>
</g>
</g>

<clipPath id ="clip5" >
<rect x="8" y="35" height="101" width="1641" transform="matrix(1,0,0,1,0,15)" />
</clipPath>
<g  clip-path="url(#clip5)" 
>
<g fill="none" stroke="#767676" stroke-opacity="1" stroke-width="1" stroke-linecap="square" stroke-linejoin="bevel" transform="matrix(1,0,0,1,0,15)"
font-family="Arial" font-size="15" font-weight="400" font-style="normal" 
>
</g>
</g>

<g  clip-path="url(#clip5)" 
>
<g fill="#ededed" fill-opacity="1" stroke="none" transform="matrix(1,0,0,1,0,15)"
font-family="Arial" font-size="15" font-weight="400" font-style="normal" 
>
<rect x="754" y="50" width="150" height="70"/>
</g>
</g>

<clipPath id ="clip6" >
<rect x="764" y="59" height="52" width="130" transform="matrix(1,0,0,1,0,15)" />
</clipPath>
<g  clip-path="url(#clip6)" 
>
<g fill="none" stroke="#767676" stroke-opacity="1" stroke-width="1" stroke-linecap="square" stroke-linejoin="bevel" transform="matrix(1,0,0,1,0,15)"
font-family="Arial" font-size="15" font-weight="400" font-style="normal" 
>
</g>
</g>

<g  clip-path="url(#clip6)" 
>
<g fill="none" stroke="#767676" stroke-opacity="1" stroke-width="1" stroke-linecap="square" stroke-linejoin="bevel" transform="matrix(1,0,0,1,0,15)"
font-family="Arial" font-size="15" font-weight="400" font-style="normal" 
>
<text fill="#767676" fill-opacity="1" stroke="none" xml:space="preserve" x="764" y="73" font-family="Arial" font-size="15" font-weight="400" font-style="normal" 
 >Total amount of</text>
</g>
</g>

<g  clip-path="url(#clip6)" 
>
<g fill="none" stroke="#767676" stroke-opacity="1" stroke-width="1" stroke-linecap="square" stroke-linejoin="bevel" transform="matrix(1,0,0,1,0,15)"
font-family="Arial" font-size="15" font-weight="400" font-style="normal" 
>
<text fill="#767676" fill-opacity="1" stroke="none" xml:space="preserve" x="764" y="90" font-family="Arial" font-size="15" font-weight="400" font-style="normal" 
 >Co2 emission map</text>
</g>
</g>

<clipPath id ="clip7" >
<rect x="8" y="35" height="101" width="1641" transform="matrix(1,0,0,1,0,15)" />
</clipPath>
<g  clip-path="url(#clip7)" 
>
<g fill="none" stroke="#767676" stroke-opacity="1" stroke-width="1" stroke-linecap="square" stroke-linejoin="bevel" transform="matrix(1,0,0,1,0,15)"
font-family="Arial" font-size="15" font-weight="400" font-style="normal" 
>
</g>
</g>

<g  clip-path="url(#clip7)" 
>
<g fill="#ededed" fill-opacity="1" stroke="none" transform="matrix(1,0,0,1,0,15)"
font-family="Arial" font-size="15" font-weight="400" font-style="normal" 
>
<rect x="906" y="50" width="150" height="70"/>
</g>
</g>

<clipPath id ="clip8" >
<rect x="916" y="59" height="52" width="130" transform="matrix(1,0,0,1,0,15)" />
</clipPath>
<g  clip-path="url(#clip8)" 
>
<g fill="none" stroke="#767676" stroke-opacity="1" stroke-width="1" stroke-linecap="square" stroke-linejoin="bevel" transform="matrix(1,0,0,1,0,15)"
font-family="Arial" font-size="15" font-weight="400" font-style="normal" 
>
</g>
</g>

<g  clip-path="url(#clip8)" 
>
<g fill="none" stroke="#767676" stroke-opacity="1" stroke-width="1" stroke-linecap="square" stroke-linejoin="bevel" transform="matrix(1,0,0,1,0,15)"
font-family="Arial" font-size="15" font-weight="400" font-style="normal" 
>
<text fill="#767676" fill-opacity="1" stroke="none" xml:space="preserve" x="916" y="73" font-family="Arial" font-size="15" font-weight="400" font-style="normal" 
 >Annual Growth in</text>
</g>
</g>

<g  clip-path="url(#clip8)" 
>
<g fill="none" stroke="#767676" stroke-opacity="1" stroke-width="1" stroke-linecap="square" stroke-linejoin="bevel" transform="matrix(1,0,0,1,0,15)"
font-family="Arial" font-size="15" font-weight="400" font-style="normal" 
>
<text fill="#767676" fill-opacity="1" stroke="none" xml:space="preserve" x="916" y="90" font-family="Arial" font-size="15" font-weight="400" font-style="normal" 
 >CO2 emission</text>
</g>
</g>

<clipPath id ="clip9" >
<rect x="8" y="35" height="101" width="1641" transform="matrix(1,0,0,1,0,15)" />
</clipPath>
<g  clip-path="url(#clip9)" 
>
<g fill="none" stroke="#767676" stroke-opacity="1" stroke-width="1" stroke-linecap="square" stroke-linejoin="bevel" transform="matrix(1,0,0,1,0,15)"
font-family="Arial" font-size="15" font-weight="400" font-style="normal" 
>
</g>
</g>

<g  clip-path="url(#clip9)" 
>
<g fill="#ededed" fill-opacity="1" stroke="none" transform="matrix(1,0,0,1,0,15)"
font-family="Arial" font-size="15" font-weight="400" font-style="normal" 
>
<rect x="1058" y="50" width="150" height="70"/>
</g>
</g>

<clipPath id ="clip10" >
<rect x="1068" y="59" height="52" width="130" transform="matrix(1,0,0,1,0,15)" />
</clipPath>
<g  clip-path="url(#clip10)" 
>
<g fill="none" stroke="#767676" stroke-opacity="1" stroke-width="1" stroke-linecap="square" stroke-linejoin="bevel" transform="matrix(1,0,0,1,0,15)"
font-family="Arial" font-size="15" font-weight="400" font-style="normal" 
>
</g>
</g>

<g  clip-path="url(#clip10)" 
>
<g fill="none" stroke="#767676" stroke-opacity="1" stroke-width="1" stroke-linecap="square" stroke-linejoin="bevel" transform="matrix(1,0,0,1,0,15)"
font-family="Arial" font-size="15" font-weight="400" font-style="normal" 
>
<text fill="#767676" fill-opacity="1" stroke="none" xml:space="preserve" x="1068" y="73" font-family="Arial" font-size="15" font-weight="400" font-style="normal" 
 >Land usage CO2</text>
</g>
</g>

<g  clip-path="url(#clip10)" 
>
<g fill="none" stroke="#767676" stroke-opacity="1" stroke-width="1" stroke-linecap="square" stroke-linejoin="bevel" transform="matrix(1,0,0,1,0,15)"
font-family="Arial" font-size="15" font-weight="400" font-style="normal" 
>
<text fill="#767676" fill-opacity="1" stroke="none" xml:space="preserve" x="1068" y="90" font-family="Arial" font-size="15" font-weight="400" font-style="normal" 
 >emission</text>
</g>
</g>

<clipPath id ="clip11" >
<rect x="8" y="35" height="101" width="1641" transform="matrix(1,0,0,1,0,15)" />
</clipPath>
<g  clip-path="url(#clip11)" 
>
<g fill="none" stroke="#767676" stroke-opacity="1" stroke-width="1" stroke-linecap="square" stroke-linejoin="bevel" transform="matrix(1,0,0,1,0,15)"
font-family="Arial" font-size="15" font-weight="400" font-style="normal" 
>
</g>
</g>

<g >
<g fill="none" stroke="#767676" stroke-opacity="1" stroke-width="1" stroke-linecap="square" stroke-linejoin="bevel" transform="matrix(1,0,0,1,0,15)"
font-family="Arial" font-size="15" font-weight="400" font-style="normal" 
>
</g>
</g>

<g >
<g fill="#ffffff" fill-opacity="1" stroke="none" transform="matrix(1,0,0,1,0,0)"
font-family="Arial" font-size="15" font-weight="400" font-style="normal" 
>
<rect x="8" y="151" width="1641" height="692"/>
</g>
</g>

<g >
<g fill="#fffef5" fill-opacity="0.85098" stroke="none" transform="matrix(1,0,0,1,0,0)"
font-family="Arial" font-size="15" font-weight="400" font-style="normal" 
>
<rect x="320" y="202" width="1068" height="306"/>
</g>
</g>

<g >
<g fill="none" stroke="#acacac" stroke-opacity="1" stroke-width="1" stroke-linecap="butt" stroke-linejoin="miter" stroke-miterlimit="2" transform="matrix(1,0,0,1,0,0)"
font-family="Arial" font-size="15" font-weight="400" font-style="normal" 
>
<rect x="320.5" y="202.5" width="1067" height="305"/>
</g>
</g>

<g >
<g fill="none" stroke="#000000" stroke-opacity="1" stroke-width="1" stroke-linecap="square" stroke-linejoin="bevel" transform="matrix(1,0,0,1,0,0)"
font-family="Times New Roman" font-size="23" font-weight="700" font-style="normal" 
>
<text fill="#000000" fill-opacity="1" stroke="none" xml:space="preserve" x="323.344" y="292" font-family="Times New Roman" font-size="23" font-weight="700" font-style="normal" 
 >                                                                            </text>
</g>
</g>

<g >
<g fill="none" stroke="#000000" stroke-opacity="1" stroke-width="1" stroke-linecap="square" stroke-linejoin="bevel" transform="matrix(1,0,0,1,0,0)"
font-family="Times New Roman" font-size="27" font-weight="700" font-style="normal" 
>
<text fill="#000000" fill-opacity="1" stroke="none" xml:space="preserve" x="760.344" y="292" font-family="Times New Roman" font-size="27" font-weight="700" font-style="normal" 
 > </text>
</g>
</g>

<g >
<g fill="none" stroke="#000000" stroke-opacity="1" stroke-width="1" stroke-linecap="square" stroke-linejoin="bevel" transform="matrix(1,0,0,1,0,0)"
font-family="Times New Roman" font-size="27" font-weight="700" font-style="normal" 
>
<text fill="#000000" fill-opacity="1" stroke="none" xml:space="preserve" x="767.094" y="292" font-family="Times New Roman" font-size="27" font-weight="700" font-style="normal" 
 >Introduction</text>
</g>
</g>

<g >
<g fill="none" stroke="#000000" stroke-opacity="1" stroke-width="2.5625" stroke-linecap="butt" stroke-linejoin="bevel" transform="matrix(1,0,0,1,0,0)"
font-family="Times New Roman" font-size="27" font-weight="700" font-style="normal" 
>
<polyline fill="none" vector-effect="none" points="767,294.5 914,294.5 " />
</g>
</g>

<g >
<g fill="none" stroke="#000000" stroke-opacity="1" stroke-width="1" stroke-linecap="square" stroke-linejoin="bevel" transform="matrix(1,0,0,1,0,0)"
font-family="Times New Roman" font-size="25" font-weight="400" font-style="normal" 
>
<text fill="#000000" fill-opacity="1" stroke="none" xml:space="preserve" x="323.344" y="348" font-family="Times New Roman" font-size="25" font-weight="400" font-style="normal" 
 >In a world that is growing increasingly aware of the urgent need to combat climate change, we started on</text>
</g>
</g>

<g >
<g fill="none" stroke="#000000" stroke-opacity="1" stroke-width="1" stroke-linecap="square" stroke-linejoin="bevel" transform="matrix(1,0,0,1,0,0)"
font-family="Times New Roman" font-size="25" font-weight="400" font-style="normal" 
>
<text fill="#000000" fill-opacity="1" stroke="none" xml:space="preserve" x="323.344" y="376" font-family="Times New Roman" font-size="25" font-weight="400" font-style="normal" 
 >a journey to unravel the story hidden behind the numbers, a story that could inspire change and ignite a</text>
</g>
</g>

<g >
<g fill="none" stroke="#000000" stroke-opacity="1" stroke-width="1" stroke-linecap="square" stroke-linejoin="bevel" transform="matrix(1,0,0,1,0,0)"
font-family="Times New Roman" font-size="25" font-weight="400" font-style="normal" 
>
<text fill="#000000" fill-opacity="1" stroke="none" xml:space="preserve" x="323.344" y="405" font-family="Times New Roman" font-size="25" font-weight="400" font-style="normal" 
 >sense of responsibility in the hearts of people. This is the story of our CO2 emission data analysis, a tale</text>
</g>
</g>

<g >
<g fill="none" stroke="#000000" stroke-opacity="1" stroke-width="1" stroke-linecap="square" stroke-linejoin="bevel" transform="matrix(1,0,0,1,0,0)"
font-family="Times New Roman" font-size="25" font-weight="400" font-style="normal" 
>
<text fill="#000000" fill-opacity="1" stroke="none" xml:space="preserve" x="323.344" y="434" font-family="Times New Roman" font-size="25" font-weight="400" font-style="normal" 
 >that will connect with you on an emotional level, urging you to take action.</text>
</g>
</g>

<g >
<g fill="#fffef5" fill-opacity="0.85098" stroke="none" transform="matrix(1,0,0,1,0,0)"
font-family="Times New Roman" font-size="25" font-weight="400" font-style="normal" 
>
<rect x="320" y="541" width="1067" height="278"/>
</g>
</g>

<g >
<g fill="none" stroke="#acacac" stroke-opacity="1" stroke-width="1" stroke-linecap="butt" stroke-linejoin="miter" stroke-miterlimit="2" transform="matrix(1,0,0,1,0,0)"
font-family="Times New Roman" font-size="25" font-weight="400" font-style="normal" 
>
<rect x="320.5" y="541.5" width="1066" height="277"/>
</g>
</g>

<g >
<g fill="none" stroke="#000000" stroke-opacity="1" stroke-width="1" stroke-linecap="square" stroke-linejoin="bevel" transform="matrix(1,0,0,1,0,0)"
font-family="Times New Roman" font-size="27" font-weight="700" font-style="normal" 
>
<text fill="#000000" fill-opacity="1" stroke="none" xml:space="preserve" x="743.297" y="589" font-family="Times New Roman" font-size="27" font-weight="700" font-style="normal" 
 >How to use the tool</text>
</g>
</g>

<g >
<g fill="none" stroke="#000000" stroke-opacity="1" stroke-width="2.5625" stroke-linecap="butt" stroke-linejoin="bevel" transform="matrix(1,0,0,1,0,0)"
font-family="Times New Roman" font-size="27" font-weight="700" font-style="normal" 
>
<polyline fill="none" vector-effect="none" points="743,591.5 963,591.5 " />
</g>
</g>

<g >
<g fill="none" stroke="#000000" stroke-opacity="1" stroke-width="1" stroke-linecap="square" stroke-linejoin="bevel" transform="matrix(1,0,0,1,0,0)"
font-family="Times New Roman" font-size="25" font-weight="400" font-style="normal" 
>
<text fill="#000000" fill-opacity="1" stroke="none" xml:space="preserve" x="323.344" y="645" font-family="Times New Roman" font-size="25" font-weight="400" font-style="normal" 
 >To reveal the discoveries in each story section, simply click on the corresponding story tab. Within each</text>
</g>
</g>

<g >
<g fill="none" stroke="#000000" stroke-opacity="1" stroke-width="1" stroke-linecap="square" stroke-linejoin="bevel" transform="matrix(1,0,0,1,0,0)"
font-family="Times New Roman" font-size="25" font-weight="400" font-style="normal" 
>
<text fill="#000000" fill-opacity="1" stroke="none" xml:space="preserve" x="323.344" y="673" font-family="Times New Roman" font-size="25" font-weight="400" font-style="normal" 
 >section's visualization, you'll find filter options for individual countries and a play button to animate the</text>
</g>
</g>

<g >
<g fill="none" stroke="#000000" stroke-opacity="1" stroke-width="1" stroke-linecap="square" stroke-linejoin="bevel" transform="matrix(1,0,0,1,0,0)"
font-family="Times New Roman" font-size="25" font-weight="400" font-style="normal" 
>
<text fill="#000000" fill-opacity="1" stroke="none" xml:space="preserve" x="323.344" y="702" font-family="Times New Roman" font-size="25" font-weight="400" font-style="normal" 
 >graph, illustrating the metrics' changes over time.</text>
</g>
</g>

<g >
<g fill="none" stroke="#000000" stroke-opacity="1" stroke-width="1" stroke-linecap="square" stroke-linejoin="bevel" transform="matrix(1,0,0,1,0,0)"
font-family="Times New Roman" font-size="25" font-weight="400" font-style="italic" 
>
<text fill="#000000" fill-opacity="1" stroke="none" xml:space="preserve" x="323.344" y="757" font-family="Times New Roman" font-size="25" font-weight="400" font-style="italic" 
 >For any technical issue please feel free to contact at:</text>
</g>
</g>

<g >
<g fill="none" stroke="#000000" stroke-opacity="1" stroke-width="1" stroke-linecap="square" stroke-linejoin="bevel" transform="matrix(1,0,0,1,0,0)"
font-family="Times New Roman" font-size="25" font-weight="700" font-style="normal" 
>
<text fill="#000000" fill-opacity="1" stroke="none" xml:space="preserve" x="323.344" y="786" font-family="Times New Roman" font-size="25" font-weight="700" font-style="normal" 
 >mateshubham7478@gmail.com</text>
</g>
</g>
</g>
</svg>
